<svg id="visual" viewBox="0 0 900 600" width="900" height="600" xmlns="http://www.w3.org/2000/svg" xmlns:xlink="http://www.w3.org/1999/xlink" version="1.1"><rect x="0" y="0" width="900" height="600" fill="#fafafa"></rect><defs><linearGradient id="grad1_0" x1="33.3%" y1="0%" x2="100%" y2="100%"><stop offset="20%" stop-color="#ededed" stop-opacity="1"></stop><stop offset="80%" stop-color="#ededed" stop-opacity="1"></stop></linearGradient></defs><defs><linearGradient id="grad1_1" x1="33.3%" y1="0%" x2="100%" y2="100%"><stop offset="20%" stop-color="#ededed" stop-opacity="1"></stop><stop offset="80%" stop-color="#fafafa" stop-opacity="1"></stop></linearGradient></defs><defs><linearGradient id="grad2_0" x1="0%" y1="0%" x2="66.7%" y2="100%"><stop offset="20%" stop-color="#ededed" stop-opacity="1"></stop><stop offset="80%" stop-color="#ededed" stop-opacity="1"></stop></linearGradient></defs><defs><linearGradient id="grad2_1" x1="0%" y1="0%" x2="66.7%" y2="100%"><stop offset="20%" stop-color="#fafafa" stop-opacity="1"></stop><stop offset="80%" stop-color="#ededed" stop-opacity="1"></stop></linearGradient></defs><g transform="translate(900, 0)"><path d="M0 432.7C-57.9 427.6 -115.7 422.5 -165.6 399.7C-215.4 377 -257.3 336.6 -294.9 294.9C-332.4 253.1 -365.8 210.1 -388 160.7C-410.3 111.4 -421.5 55.7 -432.7 0L0 0Z" fill="#f3f3f3"></path><path d="M0 216.3C-28.9 213.8 -57.9 211.2 -82.8 199.9C-107.7 188.5 -128.6 168.3 -147.4 147.4C-166.2 126.6 -182.9 105 -194 80.4C-205.1 55.7 -210.7 27.8 -216.3 0L0 0Z" fill="#ededed"></path></g><g transform="translate(0, 600)"><path d="M0 -432.7C54 -420.7 108 -408.7 161.5 -389.9C215 -371.1 268 -345.5 305.9 -305.9C343.9 -266.4 366.7 -212.9 385.3 -159.6C403.9 -106.3 418.3 -53.1 432.7 0L0 0Z" fill="#f3f3f3"></path><path d="M0 -216.3C27 -210.3 54 -204.3 80.7 -194.9C107.5 -185.5 134 -172.7 153 -153C171.9 -133.2 183.3 -106.4 192.6 -79.8C201.9 -53.1 209.1 -26.6 216.3 0L0 0Z" fill="#ededed"></path></g></svg>